<?xml version="1.0" encoding="UTF-8"?><svg id="uuid-d8b42515-569b-407b-925d-5c4b69d479b3" xmlns="http://www.w3.org/2000/svg" viewBox="0 0 305.04 66.13"><defs><style>.uuid-ff00cfda-8d4b-4e6b-afa8-6b5c1100adec{fill:#003a4a;}.uuid-f39e476d-3549-49d4-ba6e-6a7f95d7aea1{fill:#8dc21f;}</style></defs><path class="uuid-f39e476d-3549-49d4-ba6e-6a7f95d7aea1" d="M54.02,21.68c-6.57,0-12.95,5.01-12.95,13.19,0,6.39,5.04,12.61,12.73,12.61,6.44,0,9.7-3.79,10.66-5.27l-5.38-1.95c-.05,.07-.74,.68-1.36,1.02-1.01,.57-2.28,.97-3.53,.97-4.29,0-6.97-3.31-6.97-5.35h19.06s.2-.89,.2-2.27c0-5.64-3.87-12.95-12.46-12.95Zm-6.57,10.42c0-1.61,2.64-5.13,6.74-5.13,3.68,0,6.74,3.53,6.74,5.13h-13.49Z"/><path class="uuid-f39e476d-3549-49d4-ba6e-6a7f95d7aea1" d="M82.15,21.68c-6.57,0-12.95,5.01-12.95,13.19,0,6.39,5.04,12.61,12.73,12.61,6.44,0,9.7-3.79,10.66-5.27l-5.38-1.95c-.05,.07-.74,.68-1.36,1.02-1.01,.57-2.28,.97-3.53,.97-4.29,0-6.97-3.31-6.97-5.35h19.06s.2-.89,.2-2.27c0-5.64-3.87-12.95-12.46-12.95Zm-6.57,10.42c0-1.61,2.64-5.13,6.74-5.13,3.68,0,6.74,3.53,6.74,5.13h-13.49Z"/><path class="uuid-f39e476d-3549-49d4-ba6e-6a7f95d7aea1" d="M110.28,21.68c-6.57,0-12.95,5.01-12.95,13.19,0,6.39,5.04,12.61,12.73,12.61,6.44,0,9.7-3.79,10.66-5.27l-5.38-1.95c-.05,.07-.74,.68-1.36,1.02-1.01,.57-2.28,.97-3.53,.97-4.29,0-6.97-3.31-6.97-5.35h19.06s.2-.89,.2-2.27c0-5.64-3.87-12.95-12.46-12.95Zm-6.57,10.42c0-1.61,2.64-5.13,6.74-5.13,3.68,0,6.74,3.53,6.74,5.13h-13.49Z"/><path class="uuid-ff00cfda-8d4b-4e6b-afa8-6b5c1100adec" d="M287.93,29.55c-.68-1.56-1.62-2.93-2.81-4.09-1.2-1.16-2.6-2.09-4.21-2.77-1.61-.68-3.34-1.02-5.2-1.02s-3.68,.35-5.29,1.06c-1.61,.7-3.01,1.65-4.19,2.81-1.18,1.17-2.11,2.52-2.77,4.05-.66,1.53-.99,3.14-.99,4.83,0,1.56,.3,3.12,.91,4.67,.61,1.55,1.47,2.94,2.61,4.19,1.13,1.23,2.52,2.25,4.16,3.03,1.64,.78,3.49,1.17,5.56,1.17s3.92-.4,5.58-1.2c1.65-.8,3.03-1.82,4.16-3.05,1.12-1.24,1.98-2.63,2.59-4.16,.6-1.53,.91-3.06,.91-4.56,0-1.74-.34-3.39-1.02-4.96Zm-5.2,7.89c-.38,.93-.91,1.75-1.6,2.47-.69,.71-1.49,1.28-2.41,1.7-.92,.41-1.93,.62-3.01,.62-1.14,0-2.17-.22-3.1-.64-.92-.43-1.72-1.01-2.39-1.73-.68-.72-1.2-1.54-1.56-2.45-.36-.91-.54-1.86-.54-2.84s.18-1.9,.54-2.82c.36-.92,.88-1.73,1.53-2.45,.66-.71,1.46-1.28,2.4-1.71,.93-.43,1.97-.65,3.12-.65s2.18,.21,3.11,.65c.94,.42,1.73,.99,2.39,1.71,.66,.72,1.17,1.53,1.53,2.43,.37,.91,.55,1.84,.55,2.8,0,1.01-.19,1.99-.56,2.92Z"/><path class="uuid-ff00cfda-8d4b-4e6b-afa8-6b5c1100adec" d="M192.45,18.73l-5.45,1.45v19.39c0,5.03,3.16,7.92,8.68,7.92v-5.45c-3.23,0-3.23-1.09-3.23-2.47v-9.42h3.23v-5.45h-3.23v-5.97Z"/><path class="uuid-ff00cfda-8d4b-4e6b-afa8-6b5c1100adec" d="M214.87,36.35c0,3.5-2.11,5.68-5.51,5.68s-5.51-2.33-5.51-5.65v-14.65l-5.45,1.46v13.19c0,6.33,4.71,11.1,10.96,11.1s10.96-4.58,10.96-11.13v-14.61l-5.45,1.45v13.16Z"/><path class="uuid-f39e476d-3549-49d4-ba6e-6a7f95d7aea1" d="M23.85,29.16c0-1.57,1.32-2.85,4.74-2.85,2.21,0,4.75,.72,7.07,2.04l.07-.19,1.56-4.27c-2.32-1.46-5.52-2.21-8.66-2.21-7.09,0-10.52,3.53-10.52,7.77,0,9.27,14.51,6.06,14.51,10.73,0,1.53-1.39,2.67-4.81,2.67-2.99,0-6.32-1.09-8.55-2.82l-.16,.44-1.49,4.12c2.21,1.71,6.2,2.89,10.16,2.89,7.13,0,10.59-3.56,10.59-7.74,0-9.16-14.51-5.99-14.51-10.59Z"/><path class="uuid-ff00cfda-8d4b-4e6b-afa8-6b5c1100adec" d="M169.77,29.16c0-1.57,1.32-2.85,4.74-2.85,2.21,0,4.75,.72,7.07,2.04l.07-.19,1.56-4.27c-2.32-1.46-5.52-2.21-8.66-2.21-7.09,0-10.52,3.53-10.52,7.77,0,9.27,14.51,6.06,14.51,10.73,0,1.53-1.39,2.67-4.81,2.67-2.99,0-6.32-1.09-8.55-2.82l-.16,.44-1.48,4.12c2.21,1.71,6.2,2.89,10.16,2.89,7.13,0,10.59-3.56,10.59-7.74,0-9.16-14.51-5.99-14.51-10.59Z"/><rect class="uuid-ff00cfda-8d4b-4e6b-afa8-6b5c1100adec" x="254.32" y="24.69" width="5.44" height="22.79"/><rect class="uuid-ff00cfda-8d4b-4e6b-afa8-6b5c1100adec" x="254.32" y="17.15" width="5.44" height="4.52"/><path class="uuid-f39e476d-3549-49d4-ba6e-6a7f95d7aea1" d="M147.17,24.65c-.98-.78-2.07-1.43-3.27-1.94-1.61-.68-3.34-1.02-5.2-1.02s-3.68,.35-5.29,1.06c-1.61,.7-3.01,1.65-4.19,2.81-1.18,1.17-2.11,2.52-2.77,4.05-.66,1.53-.99,3.14-.99,4.83,0,1.56,.3,3.12,.91,4.67,.61,1.55,1.47,2.94,2.61,4.19,1.13,1.23,2.52,2.25,4.16,3.03,1.64,.78,3.49,1.17,5.56,1.17s3.92-.4,5.58-1.2c1.08-.52,2.04-1.15,2.89-1.86v3.06h5.49V17.18l-5.49,1.48v5.98Zm-1.45,12.8c-.38,.93-.91,1.75-1.6,2.47-.69,.71-1.49,1.28-2.41,1.7-.92,.41-1.93,.62-3.01,.62-1.14,0-2.17-.22-3.1-.64-.92-.43-1.72-1.01-2.39-1.73-.68-.72-1.2-1.54-1.56-2.45-.36-.91-.54-1.86-.54-2.84s.18-1.9,.54-2.82c.37-.92,.88-1.73,1.53-2.45,.66-.71,1.46-1.28,2.4-1.71,.93-.43,1.97-.65,3.12-.65s2.18,.21,3.11,.65c.94,.42,1.73,.99,2.39,1.71,.66,.72,1.17,1.53,1.53,2.43,.37,.91,.55,1.84,.55,2.8,0,1.02-.19,1.99-.56,2.92Z"/><path class="uuid-ff00cfda-8d4b-4e6b-afa8-6b5c1100adec" d="M244.75,24.65c-.98-.78-2.07-1.43-3.27-1.94-1.61-.68-3.34-1.02-5.2-1.02s-3.68,.35-5.29,1.06c-1.61,.7-3.01,1.65-4.19,2.81-1.18,1.17-2.11,2.52-2.77,4.05-.66,1.53-.99,3.14-.99,4.83,0,1.56,.3,3.12,.91,4.67,.61,1.55,1.47,2.94,2.61,4.19,1.13,1.23,2.52,2.25,4.16,3.03,1.64,.78,3.49,1.17,5.56,1.17s3.92-.4,5.58-1.2c1.08-.52,2.04-1.15,2.89-1.86v3.06h5.49V17.19l-5.49,1.47v5.98Zm-1.45,12.8c-.38,.93-.91,1.75-1.6,2.47-.69,.71-1.49,1.28-2.41,1.7-.92,.41-1.93,.62-3.01,.62-1.14,0-2.17-.22-3.1-.64-.92-.43-1.72-1.01-2.39-1.73-.68-.72-1.2-1.54-1.56-2.45-.36-.91-.54-1.86-.54-2.84s.18-1.9,.54-2.82c.37-.92,.88-1.73,1.53-2.45,.66-.71,1.46-1.28,2.4-1.71,.93-.43,1.97-.65,3.12-.65s2.18,.21,3.11,.65c.93,.42,1.73,.99,2.39,1.71,.66,.72,1.17,1.53,1.53,2.43,.37,.91,.55,1.84,.55,2.8,0,1.02-.19,1.99-.56,2.92Z"/></svg>